<?xml version="1.0" encoding="utf-8"?>
<!-- Generator: Adobe Illustrator 24.1.1, SVG Export Plug-In . SVG Version: 6.00 Build 0)  -->
<svg version="1.1" id="レイヤー_1" xmlns="http://www.w3.org/2000/svg" xmlns:xlink="http://www.w3.org/1999/xlink" x="0px"
	 y="0px" width="400.5px" height="359.7px" viewBox="0 0 400.5 359.7" style="enable-background:new 0 0 400.5 359.7;"
	 xml:space="preserve">
<style type="text/css">
	.st0{fill:#979797;}
</style>
<g>
	<path class="st0" d="M79.4,69.7L65,0H0v20h48.5l12.3,50H61l37.8,200.7h263.9l37.9-201H79.4z M347.2,250.7H116.8L84,89.7h296
		L347.2,250.7z"/>
	<path class="st0" d="M140,279.7c-22.1,0-40,17.9-40,40c0,22.1,17.9,40,40,40c22.1,0,40-17.9,40-40C180,297.6,162.1,279.7,140,279.7
		z M140,339.7c-11,0-20-9-20-20s9-20,20-20s20,9,20,20S151,339.7,140,339.7z"/>
	<path class="st0" d="M321,279.7c-22.1,0-40,17.9-40,40c0,22.1,17.9,40,40,40c22.1,0,40-17.9,40-40C361,297.6,343.1,279.7,321,279.7
		z M321,339.7c-11,0-20-9-20-20s9-20,20-20c11,0,20,9,20,20S332,339.7,321,339.7z"/>
</g>
</svg>
