<?xml version="1.0" encoding="utf-8"?>
<!-- Generator: Adobe Illustrator 24.1.1, SVG Export Plug-In . SVG Version: 6.00 Build 0)  -->
<svg version="1.1" id="レイヤー_27" xmlns="http://www.w3.org/2000/svg" xmlns:xlink="http://www.w3.org/1999/xlink" x="0px"
	 y="0px" width="373.4px" height="407.8px" viewBox="0 0 373.4 407.8" style="enable-background:new 0 0 373.4 407.8;"
	 xml:space="preserve">
<style type="text/css">
	.st0{fill:#979797;}
</style>
<path class="st0" d="M340.7,0H134.1c-18,0-32.7,14.7-32.7,32.7v161.1L11,194c-6.1,0-11,4.9-11,11c0,6.1,4.9,11,11,11c0,0,0,0,0,0
	l90.4-0.1v159.3c0,18,14.7,32.7,32.7,32.7h206.6c18,0,32.7-14.7,32.7-32.7V32.7C373.4,14.7,358.7,0,340.7,0z M351.2,371.2
	c0,7.1-5.8,12.9-12.9,12.9H136.5c-7.1,0-12.9-5.8-12.9-12.9V219.8v-4l112.2-0.2l-49,49.4c-4.3,4.3-4.2,11.3,0.1,15.6
	c2.1,2.1,4.9,3.2,7.7,3.2c2.8,0,5.7-1.1,7.8-3.3l67.7-68.3c0,0,0,0,0,0c0,0,0,0,0,0l0,0c0.1-0.1,0.2-0.2,0.3-0.3
	c0.2-0.2,0.3-0.3,0.5-0.5c0.1-0.1,0.2-0.2,0.2-0.3c0.1-0.2,0.3-0.4,0.4-0.6c0.1-0.1,0.1-0.2,0.2-0.4c0.1-0.2,0.2-0.4,0.3-0.6
	c0.1-0.1,0.1-0.3,0.2-0.4c0.1-0.2,0.2-0.4,0.3-0.6c0.1-0.1,0.1-0.3,0.1-0.4c0.1-0.2,0.1-0.4,0.2-0.6c0-0.1,0.1-0.3,0.1-0.4
	c0.1-0.2,0.1-0.4,0.1-0.6c0-0.1,0-0.3,0.1-0.4c0-0.2,0.1-0.4,0.1-0.6c0-0.1,0-0.3,0-0.4c0-0.2,0-0.4,0-0.6c0-0.2,0-0.3,0-0.5
	c0-0.2,0-0.4,0-0.6c0-0.2,0-0.3-0.1-0.5c0-0.2,0-0.4-0.1-0.6c0-0.2-0.1-0.3-0.1-0.5c0-0.2-0.1-0.4-0.1-0.5c-0.1-0.2-0.1-0.3-0.2-0.5
	c-0.1-0.2-0.1-0.3-0.2-0.5c-0.1-0.2-0.2-0.3-0.2-0.5c-0.1-0.2-0.1-0.3-0.2-0.5c-0.1-0.2-0.2-0.4-0.3-0.5c-0.1-0.1-0.2-0.3-0.2-0.4
	c-0.1-0.2-0.3-0.3-0.4-0.5c-0.1-0.1-0.2-0.2-0.3-0.4c-0.1-0.2-0.3-0.3-0.4-0.5c-0.1-0.1-0.2-0.2-0.3-0.3l0,0c0,0,0,0,0,0
	c0,0,0,0,0,0l-67.7-67.8c-4.3-4.3-11.3-4.3-15.6,0c-4.3,4.3-4.3,11.3,0,15.6l49.1,49.2l-112.3,0.2V36.7c0-7.1,5.8-12.9,12.9-12.9
	h201.8c7.1,0,12.9,5.8,12.9,12.9V371.2z"/>
</svg>
